<svg xmlns="http://www.w3.org/2000/svg" viewBox="0 0 202 92">
  <path fill="#ECECEC" fill-rule="nonzero" stroke="#000" stroke-linecap="round" stroke-linejoin="round"
    stroke-width=".2"
    d="m121 12 4-1 10-6-1 2 8 5 18 16 2-3 8 3 6-2 3 2 5 3 4 1 3 3 6-1 4 4-2 4-3 1 2 6-2 3-10-2 1 11-2 1-9 3 8 11-3 2 2 3-3-1-4-2-8-1h-8l-2 1-8-3-3 2 1 3-9-2-3 1-1 3-2 1-6 4-1 5h-2l-2-3h-7l-2-5-3-1-1-6-8-5-8 1-6 1-7-6-4-2-10-5h-1l-12 3 6 24h-2l-5-5-4-2-5 2-2 2-1-2 1-2-2-3-6-2-4-5-3-2-1-2h5l-1-4 4-1 5 1-1-6-1-4h-5l-5-1-5 2-5 2-2-1-1-4-4-4H5l-5-4 2-5-2-1 2-7 6 4v-5l8-6 7-1 12 5 7 2 4-2h8l7 3 1-2h7v-3l-9-4 3-3-1-2 4-1-5-4 1-3 17-2 2-1 11-2 3-3 9 1 4 7 5-2 7 2 1 4z" />
</svg>